<svg width="169" height="51" viewBox="0 0 169 51" fill="none" xmlns="http://www.w3.org/2000/svg">
<path d="M120.542 35.6371C120.701 35.6371 120.829 35.5093 120.829 35.3516C120.829 35.1939 120.701 35.066 120.542 35.066C120.383 35.066 120.254 35.1939 120.254 35.3516C120.254 35.5093 120.383 35.6371 120.542 35.6371Z" fill="#FF4E45"/>
<path d="M122.688 39.692C122.975 39.692 123.224 39.4636 123.224 39.159C123.224 38.8735 122.994 38.626 122.688 38.626C122.381 38.626 122.151 38.8544 122.151 39.159C122.151 39.4446 122.4 39.692 122.688 39.692Z" fill="#FF4E45"/>
<path d="M125.505 43.271C125.907 43.271 126.252 42.9474 126.252 42.5286C126.252 42.1288 125.926 41.7861 125.505 41.7861C125.083 41.7861 124.757 42.1098 124.757 42.5286C124.757 42.9474 125.083 43.271 125.505 43.271Z" fill="#FF4E45"/>
<path d="M128.877 46.2788C129.394 46.2788 129.816 45.86 129.816 45.346C129.816 44.832 129.394 44.4132 128.877 44.4132C128.359 44.4132 127.938 44.832 127.938 45.346C127.938 45.86 128.359 46.2788 128.877 46.2788Z" fill="#FF4E45"/>
<path d="M132.709 48.6014C133.322 48.6014 133.801 48.1064 133.801 47.5163C133.801 46.9071 133.303 46.4312 132.709 46.4312C132.096 46.4312 131.617 46.9261 131.617 47.5163C131.617 48.1254 132.096 48.6014 132.709 48.6014Z" fill="#FF4E45"/>
<path d="M136.867 50.2005C137.555 50.2005 138.112 49.6465 138.112 48.9631C138.112 48.2797 137.555 47.7256 136.867 47.7256C136.179 47.7256 135.622 48.2797 135.622 48.9631C135.622 49.6465 136.179 50.2005 136.867 50.2005Z" fill="#FF4E45"/>
<path d="M141.217 51C141.983 51 142.596 50.3908 142.596 49.6293C142.596 48.8679 141.983 48.2587 141.217 48.2587C140.45 48.2587 139.837 48.8679 139.837 49.6293C139.837 50.3718 140.469 51 141.217 51Z" fill="#FF4E45"/>
<path d="M145.643 50.9809C146.468 50.9809 147.137 50.3161 147.137 49.4961C147.137 48.676 146.468 48.0112 145.643 48.0112C144.817 48.0112 144.148 48.676 144.148 49.4961C144.148 50.3161 144.817 50.9809 145.643 50.9809Z" fill="#FF4E45"/>
<path d="M149.954 50.1814C150.835 50.1814 151.563 49.4771 151.563 48.5823C151.563 47.7066 150.855 46.9832 149.954 46.9832C149.053 46.9832 148.344 47.6876 148.344 48.5823C148.344 49.4771 149.053 50.1814 149.954 50.1814Z" fill="#FF4E45"/>
<path d="M154.016 48.6014C154.936 48.6014 155.702 47.8589 155.702 46.9261C155.702 45.9933 154.955 45.2509 154.016 45.2509C153.096 45.2509 152.33 45.9933 152.33 46.9261C152.33 47.8589 153.096 48.6014 154.016 48.6014Z" fill="#FF4E45"/>
<path d="M157.733 46.2788C158.696 46.2788 159.477 45.5032 159.477 44.5465C159.477 43.5897 158.696 42.8141 157.733 42.8141C156.77 42.8141 155.99 43.5897 155.99 44.5465C155.99 45.5032 156.77 46.2788 157.733 46.2788Z" fill="#FF4E45"/>
<path d="M160.933 43.3471C161.93 43.3471 162.754 42.5476 162.754 41.5386C162.754 40.5297 161.949 39.7301 160.933 39.7301C159.918 39.7301 159.113 40.5297 159.113 41.5386C159.113 42.5476 159.937 43.3471 160.933 43.3471Z" fill="#FF4E45"/>
<path d="M163.558 39.8634C164.574 39.8634 165.417 39.0448 165.417 38.0168C165.417 37.0079 164.593 36.1702 163.558 36.1702C162.543 36.1702 161.7 36.9888 161.7 38.0168C161.7 39.0448 162.543 39.8634 163.558 39.8634Z" fill="#FF4E45"/>
<path d="M165.494 35.9608C166.528 35.9608 167.371 35.1232 167.371 34.0952C167.371 33.0672 166.528 32.2296 165.494 32.2296C164.459 32.2296 163.616 33.0672 163.616 34.0952C163.616 35.1232 164.459 35.9608 165.494 35.9608Z" fill="#FF4E45"/>
<path d="M166.682 31.7727C167.735 31.7727 168.578 30.935 168.578 29.888C168.578 28.841 167.735 28.0034 166.682 28.0034C165.628 28.0034 164.785 28.841 164.785 29.888C164.785 30.935 165.628 31.7727 166.682 31.7727Z" fill="#FF4E45"/>
<path d="M167.084 27.4132C168.142 27.4132 169 26.5609 169 25.5095C169 24.4581 168.142 23.6058 167.084 23.6058C166.026 23.6058 165.168 24.4581 165.168 25.5095C165.168 26.5609 166.026 27.4132 167.084 27.4132Z" fill="#FF4E45"/>
<path d="M166.682 23.0347C167.735 23.0347 168.578 22.1971 168.578 21.15C168.578 20.103 167.735 19.2654 166.682 19.2654C165.628 19.2654 164.785 20.103 164.785 21.15C164.785 22.1971 165.647 23.0347 166.682 23.0347Z" fill="#FF4E45"/>
<path d="M165.513 18.7895C166.547 18.7895 167.39 17.9518 167.39 16.9238C167.39 15.8959 166.547 15.0582 165.513 15.0582C164.478 15.0582 163.635 15.8959 163.635 16.9238C163.635 17.9518 164.478 18.7895 165.513 18.7895Z" fill="#FF4E45"/>
<path d="M163.577 14.8298C164.593 14.8298 165.436 14.0112 165.436 12.9832C165.436 11.9552 164.612 11.1366 163.577 11.1366C162.562 11.1366 161.719 11.9552 161.719 12.9832C161.719 14.0112 162.562 14.8298 163.577 14.8298Z" fill="#FF4E45"/>
<path d="M160.952 11.2699C161.958 11.2699 162.773 10.4602 162.773 9.46134C162.773 8.46253 161.958 7.65283 160.952 7.65283C159.947 7.65283 159.132 8.46253 159.132 9.46134C159.132 10.4602 159.947 11.2699 160.952 11.2699Z" fill="#FF4E45"/>
<path d="M157.752 8.2049C158.711 8.2049 159.496 7.42438 159.496 6.47254C159.496 5.52069 158.711 4.74017 157.752 4.74017C156.794 4.74017 156.009 5.52069 156.009 6.47254C156.009 7.42438 156.794 8.2049 157.752 8.2049Z" fill="#FF4E45"/>
<path d="M154.054 5.76817C154.974 5.76817 155.741 5.02573 155.741 4.09292C155.741 3.1601 154.993 2.41766 154.054 2.41766C153.135 2.41766 152.368 3.1601 152.368 4.09292C152.368 5.02573 153.116 5.76817 154.054 5.76817Z" fill="#FF4E45"/>
<path d="M149.973 4.01681C150.855 4.01681 151.583 3.29341 151.583 2.41771C151.583 1.54201 150.855 0.818604 149.973 0.818604C149.092 0.818604 148.364 1.54201 148.364 2.41771C148.364 3.29341 149.092 4.01681 149.973 4.01681Z" fill="#FF4E45"/>
<path d="M145.662 2.98881C146.487 2.98881 147.156 2.324 147.156 1.50393C147.156 0.683848 146.487 0.019043 145.662 0.019043C144.836 0.019043 144.167 0.683848 144.167 1.50393C144.167 2.324 144.836 2.98881 145.662 2.98881Z" fill="#FF4E45"/>
<path d="M141.255 2.74132C142.017 2.74132 142.634 2.12766 142.634 1.37066C142.634 0.613666 142.017 0 141.255 0C140.493 0 139.875 0.613666 139.875 1.37066C139.875 2.12766 140.493 2.74132 141.255 2.74132Z" fill="#FF4E45"/>
<path d="M136.905 3.2934C137.595 3.2934 138.17 2.74132 138.17 2.03696C138.17 1.35163 137.614 0.780518 136.905 0.780518C136.196 0.780518 135.641 1.33259 135.641 2.03696C135.641 2.72229 136.196 3.2934 136.905 3.2934Z" fill="#FF4E45"/>
<path d="M132.728 4.56888C133.341 4.56888 133.84 4.07392 133.84 3.46474C133.84 2.85556 133.341 2.3606 132.728 2.3606C132.115 2.3606 131.617 2.85556 131.617 3.46474C131.617 4.07392 132.115 4.56888 132.728 4.56888Z" fill="#FF4E45"/>
<path d="M128.896 6.56777C129.413 6.56777 129.835 6.14896 129.835 5.63496C129.835 5.12096 129.413 4.70215 128.896 4.70215C128.379 4.70215 127.957 5.12096 127.957 5.63496C127.957 6.14896 128.379 6.56777 128.896 6.56777Z" fill="#FF4E45"/>
<path d="M125.524 9.19484C125.926 9.19484 126.271 8.87122 126.271 8.4524C126.271 8.05263 125.945 7.70996 125.524 7.70996C125.121 7.70996 124.776 8.03359 124.776 8.4524C124.776 8.85218 125.102 9.19484 125.524 9.19484Z" fill="#FF4E45"/>
<path d="M122.707 12.355C123.003 12.355 123.244 12.1164 123.244 11.822C123.244 11.5276 123.003 11.2889 122.707 11.2889C122.411 11.2889 122.171 11.5276 122.171 11.822C122.171 12.1164 122.411 12.355 122.707 12.355Z" fill="#FF4E45"/>
<path d="M120.542 15.9339C120.695 15.9339 120.829 15.8006 120.829 15.6483C120.829 15.4961 120.695 15.3628 120.542 15.3628C120.389 15.3628 120.254 15.4961 120.254 15.6483C120.254 15.8006 120.389 15.9339 120.542 15.9339Z" fill="#FF4E45"/>
<path d="M122.343 34.2284C122.458 34.2284 122.554 34.1333 122.554 34.019C122.554 33.9048 122.458 33.8096 122.343 33.8096C122.228 33.8096 122.132 33.9048 122.132 34.019C122.132 34.1333 122.228 34.2284 122.343 34.2284Z" fill="black"/>
<path d="M124.202 37.7122C124.412 37.7122 124.585 37.5408 124.585 37.3314C124.585 37.122 124.412 36.9507 124.202 36.9507C123.991 36.9507 123.818 37.122 123.818 37.3314C123.818 37.5408 123.991 37.7122 124.202 37.7122Z" fill="white"/>
<path d="M126.635 40.7771C126.922 40.7771 127.172 40.5487 127.172 40.2441C127.172 39.9585 126.942 39.7111 126.635 39.7111C126.348 39.7111 126.099 39.9395 126.099 40.2441C126.118 40.5487 126.348 40.7771 126.635 40.7771Z" fill="white"/>
<path d="M129.567 43.3471C129.931 43.3471 130.237 43.0425 130.237 42.6808C130.237 42.3191 129.931 42.0145 129.567 42.0145C129.203 42.0145 128.896 42.3191 128.896 42.6808C128.896 43.0616 129.203 43.3471 129.567 43.3471Z" fill="white"/>
<path d="M132.882 45.346C133.322 45.346 133.667 45.0033 133.667 44.5655C133.667 44.1276 133.322 43.785 132.882 43.785C132.441 43.785 132.096 44.1276 132.096 44.5655C132.096 45.0033 132.441 45.346 132.882 45.346Z" fill="white"/>
<path d="M136.484 46.6976C136.982 46.6976 137.384 46.2978 137.384 45.8029C137.384 45.3079 136.982 44.9081 136.484 44.9081C135.986 44.9081 135.583 45.3079 135.583 45.8029C135.583 46.2978 135.986 46.6976 136.484 46.6976Z" fill="white"/>
<path d="M140.259 47.3639C140.795 47.3639 141.236 46.9261 141.236 46.3931C141.236 45.86 140.795 45.4222 140.259 45.4222C139.722 45.4222 139.281 45.86 139.281 46.3931C139.262 46.9261 139.703 47.3639 140.259 47.3639Z" fill="white"/>
<path d="M144.072 47.3449C144.666 47.3449 145.145 46.869 145.145 46.2788C145.145 45.6887 144.666 45.2128 144.072 45.2128C143.478 45.2128 142.999 45.6887 142.999 46.2788C142.999 46.869 143.478 47.3449 144.072 47.3449Z" fill="white"/>
<path d="M147.808 46.6405C148.44 46.6405 148.958 46.1265 148.958 45.4983C148.958 44.8701 148.44 44.3561 147.808 44.3561C147.176 44.3561 146.658 44.8701 146.658 45.4983C146.658 46.1265 147.176 46.6405 147.808 46.6405Z" fill="white"/>
<path d="M151.334 45.2508C152.004 45.2508 152.541 44.7178 152.541 44.0515C152.541 43.3852 152.004 42.8522 151.334 42.8522C150.663 42.8522 150.126 43.3852 150.126 44.0515C150.146 44.7178 150.682 45.2508 151.334 45.2508Z" fill="white"/>
<path d="M154.553 43.2329C155.24 43.2329 155.798 42.6789 155.798 41.9955C155.798 41.3121 155.24 40.7581 154.553 40.7581C153.865 40.7581 153.307 41.3121 153.307 41.9955C153.307 42.6789 153.865 43.2329 154.553 43.2329Z" fill="white"/>
<path d="M157.331 40.701C158.051 40.701 158.634 40.1214 158.634 39.4065C158.634 38.6915 158.051 38.1119 157.331 38.1119C156.611 38.1119 156.028 38.6915 156.028 39.4065C156.028 40.1214 156.611 40.701 157.331 40.701Z" fill="white"/>
<path d="M159.592 37.6741C160.32 37.6741 160.914 37.084 160.914 36.3605C160.914 35.6371 160.32 35.047 159.592 35.047C158.864 35.047 158.27 35.6371 158.27 36.3605C158.27 37.084 158.864 37.6741 159.592 37.6741Z" fill="white"/>
<path d="M161.278 34.2665C162.025 34.2665 162.619 33.6763 162.619 32.9339C162.619 32.1915 162.025 31.6013 161.278 31.6013C160.531 31.6013 159.937 32.1915 159.937 32.9339C159.937 33.6763 160.531 34.2665 161.278 34.2665Z" fill="white"/>
<path d="M162.294 30.6495C163.045 30.6495 163.654 30.0443 163.654 29.2979C163.654 28.5514 163.045 27.9462 162.294 27.9462C161.542 27.9462 160.933 28.5514 160.933 29.2979C160.933 30.0443 161.542 30.6495 162.294 30.6495Z" fill="white"/>
<path d="M162.639 26.8802C163.386 26.8802 164.018 26.271 164.018 25.5095C164.018 24.748 163.405 24.1389 162.639 24.1389C161.872 24.1389 161.259 24.748 161.259 25.5095C161.259 26.271 161.891 26.8802 162.639 26.8802Z" fill="white"/>
<path d="M162.313 23.0918C163.064 23.0918 163.673 22.4867 163.673 21.7402C163.673 20.9937 163.064 20.3885 162.313 20.3885C161.561 20.3885 160.952 20.9937 160.952 21.7402C160.952 22.4867 161.561 23.0918 162.313 23.0918Z" fill="white"/>
<path d="M161.278 19.4177C162.025 19.4177 162.619 18.8275 162.619 18.0851C162.619 17.3426 162.025 16.7525 161.278 16.7525C160.531 16.7525 159.937 17.3426 159.937 18.0851C159.937 18.8085 160.55 19.4177 161.278 19.4177Z" fill="white"/>
<path d="M159.611 15.9911C160.339 15.9911 160.933 15.4009 160.933 14.6775C160.933 13.9541 160.339 13.364 159.611 13.364C158.883 13.364 158.289 13.9541 158.289 14.6775C158.289 15.4009 158.883 15.9911 159.611 15.9911Z" fill="white"/>
<path d="M157.35 12.907C158.059 12.907 158.653 12.3359 158.653 11.6125C158.653 10.9081 158.078 10.318 157.35 10.318C156.622 10.318 156.047 10.8891 156.047 11.6125C156.047 12.3359 156.622 12.907 157.35 12.907Z" fill="white"/>
<path d="M154.572 10.2609C155.26 10.2609 155.817 9.70687 155.817 9.02347C155.817 8.34008 155.26 7.78607 154.572 7.78607C153.884 7.78607 153.326 8.34008 153.326 9.02347C153.326 9.70687 153.884 10.2609 154.572 10.2609Z" fill="white"/>
<path d="M151.372 8.16685C152.039 8.16685 152.579 7.62989 152.579 6.96752C152.579 6.30515 152.039 5.76819 151.372 5.76819C150.705 5.76819 150.165 6.30515 150.165 6.96752C150.165 7.62989 150.705 8.16685 151.372 8.16685Z" fill="white"/>
<path d="M147.827 6.66291C148.462 6.66291 148.977 6.15153 148.977 5.5207C148.977 4.88987 148.462 4.37848 147.827 4.37848C147.192 4.37848 146.677 4.88987 146.677 5.5207C146.677 6.15153 147.192 6.66291 147.827 6.66291Z" fill="white"/>
<path d="M144.11 5.78723C144.704 5.78723 145.183 5.31131 145.183 4.72116C145.183 4.13101 144.704 3.65509 144.11 3.65509C143.516 3.65509 143.037 4.13101 143.037 4.72116C143.037 5.31131 143.516 5.78723 144.11 5.78723Z" fill="white"/>
<path d="M140.278 5.59685C140.828 5.59685 141.274 5.15364 141.274 4.60693C141.274 4.06021 140.828 3.617 140.278 3.617C139.727 3.617 139.281 4.06021 139.281 4.60693C139.281 5.15364 139.727 5.59685 140.278 5.59685Z" fill="white"/>
<path d="M136.503 6.0728C137 6.0728 137.404 5.67221 137.404 5.17806C137.404 4.68391 137 4.28333 136.503 4.28333C136.006 4.28333 135.602 4.68391 135.602 5.17806C135.602 5.67221 136.006 6.0728 136.503 6.0728Z" fill="white"/>
<path d="M132.901 7.21496C133.341 7.21496 133.686 6.8723 133.686 6.43445C133.686 5.9966 133.341 5.65393 132.901 5.65393C132.46 5.65393 132.115 5.9966 132.115 6.43445C132.115 6.85326 132.46 7.21496 132.901 7.21496Z" fill="white"/>
<path d="M129.586 8.96638C129.95 8.96638 130.256 8.66178 130.256 8.30008C130.256 7.93838 129.95 7.63379 129.586 7.63379C129.222 7.63379 128.915 7.93838 128.915 8.30008C128.915 8.66178 129.222 8.96638 129.586 8.96638Z" fill="white"/>
<path d="M126.654 11.2699C126.942 11.2699 127.191 11.0414 127.191 10.7368C127.191 10.4322 126.961 10.2038 126.654 10.2038C126.348 10.2038 126.118 10.4322 126.118 10.7368C126.118 11.0414 126.367 11.2699 126.654 11.2699Z" fill="white"/>
<path d="M124.221 14.0302C124.432 14.0302 124.604 13.8589 124.604 13.6495C124.604 13.4401 124.432 13.2687 124.221 13.2687C124.01 13.2687 123.838 13.4401 123.838 13.6495C123.838 13.8589 124.01 14.0302 124.221 14.0302Z" fill="white"/>
<path d="M122.343 17.1713C122.458 17.1713 122.554 17.0761 122.554 16.9619C122.554 16.8477 122.458 16.7525 122.343 16.7525C122.228 16.7525 122.132 16.8477 122.132 16.9619C122.151 17.0761 122.228 17.1713 122.343 17.1713Z" fill="black"/>
<path d="M126.769 33.2195C126.884 33.2195 126.98 33.1243 126.98 33.0101C126.98 32.8958 126.884 32.8007 126.769 32.8007C126.654 32.8007 126.558 32.8958 126.558 33.0101C126.558 33.1243 126.654 33.2195 126.769 33.2195Z" fill="#FF4E45"/>
<path d="M128.915 36.57C129.126 36.57 129.279 36.3986 129.279 36.2083C129.279 35.9989 129.107 35.8466 128.915 35.8466C128.704 35.8466 128.551 36.0179 128.551 36.2083C128.532 36.4177 128.704 36.57 128.915 36.57Z" fill="#FF4E45"/>
<path d="M131.732 39.3494C132.018 39.3494 132.249 39.1193 132.249 38.8354C132.249 38.5515 132.018 38.3214 131.732 38.3214C131.446 38.3214 131.215 38.5515 131.215 38.8354C131.215 39.1193 131.446 39.3494 131.732 39.3494Z" fill="#FF4E45"/>
<path d="M135.085 41.3863C135.43 41.3863 135.717 41.1008 135.717 40.7581C135.717 40.4154 135.43 40.1299 135.085 40.1299C134.74 40.1299 134.453 40.4154 134.453 40.7581C134.453 41.1008 134.74 41.3863 135.085 41.3863Z" fill="#FF4E45"/>
<path d="M138.802 42.5666C139.215 42.5666 139.55 42.2342 139.55 41.8242C139.55 41.4141 139.215 41.0817 138.802 41.0817C138.39 41.0817 138.055 41.4141 138.055 41.8242C138.055 42.2342 138.39 42.5666 138.802 42.5666Z" fill="#FF4E45"/>
<path d="M142.654 42.8712C143.113 42.8712 143.478 42.5095 143.478 42.0527C143.478 41.5958 143.113 41.2341 142.654 41.2341C142.194 41.2341 141.83 41.5958 141.83 42.0527C141.83 42.5095 142.194 42.8712 142.654 42.8712Z" fill="#FF4E45"/>
<path d="M146.467 42.2811C146.965 42.2811 147.386 41.8813 147.386 41.3673C147.386 40.8724 146.984 40.4536 146.467 40.4536C145.949 40.4536 145.547 40.8533 145.547 41.3673C145.547 41.8623 145.968 42.2811 146.467 42.2811Z" fill="#FF4E45"/>
<path d="M150.011 40.7962C150.548 40.7962 150.989 40.3583 150.989 39.8253C150.989 39.2923 150.548 38.8544 150.011 38.8544C149.475 38.8544 149.034 39.2923 149.034 39.8253C149.053 40.3774 149.475 40.7962 150.011 40.7962Z" fill="#FF4E45"/>
<path d="M153.116 38.5498C153.676 38.5498 154.131 38.0981 154.131 37.5409C154.131 36.9836 153.676 36.5319 153.116 36.5319C152.555 36.5319 152.1 36.9836 152.1 37.5409C152.1 38.0981 152.555 38.5498 153.116 38.5498Z" fill="#FF4E45"/>
<path d="M155.587 35.6372C156.169 35.6372 156.641 35.1684 156.641 34.5901C156.641 34.0119 156.169 33.5431 155.587 33.5431C155.005 33.5431 154.533 34.0119 154.533 34.5901C154.533 35.1684 155.005 35.6372 155.587 35.6372Z" fill="#FF4E45"/>
<path d="M157.331 32.2296C157.925 32.2296 158.404 31.7536 158.404 31.1635C158.404 30.5733 157.925 30.0974 157.331 30.0974C156.737 30.0974 156.258 30.5733 156.258 31.1635C156.258 31.7536 156.737 32.2296 157.331 32.2296Z" fill="#FF4E45"/>
<path d="M158.212 28.5174C158.816 28.5174 159.305 28.0316 159.305 27.4323C159.305 26.833 158.816 26.3472 158.212 26.3472C157.609 26.3472 157.12 26.833 157.12 27.4323C157.12 28.0316 157.609 28.5174 158.212 28.5174Z" fill="#FF4E45"/>
<path d="M158.212 24.6719C158.806 24.6719 159.305 24.1959 159.305 23.5868C159.305 22.9966 158.826 22.5016 158.212 22.5016C157.618 22.5016 157.12 22.9776 157.12 23.5868C157.12 24.1769 157.618 24.6719 158.212 24.6719Z" fill="#FF4E45"/>
<path d="M157.331 20.9026C157.925 20.9026 158.404 20.4267 158.404 19.8365C158.404 19.2464 157.925 18.7704 157.331 18.7704C156.737 18.7704 156.258 19.2464 156.258 19.8365C156.258 20.4267 156.737 20.9026 157.331 20.9026Z" fill="#FF4E45"/>
<path d="M155.587 17.4569C156.162 17.4569 156.641 16.9809 156.641 16.4098C156.641 15.8387 156.162 15.3628 155.587 15.3628C155.012 15.3628 154.533 15.8387 154.533 16.4098C154.533 16.9809 155.012 17.4569 155.587 17.4569Z" fill="#FF4E45"/>
<path d="M153.116 14.4681C153.671 14.4681 154.131 14.0112 154.131 13.4592C154.131 12.9071 153.671 12.4502 153.116 12.4502C152.56 12.4502 152.1 12.9071 152.1 13.4592C152.081 14.0303 152.541 14.4681 153.116 14.4681Z" fill="#FF4E45"/>
<path d="M150.011 12.1265C150.551 12.1265 150.989 11.6918 150.989 11.1556C150.989 10.6194 150.551 10.1848 150.011 10.1848C149.472 10.1848 149.034 10.6194 149.034 11.1556C149.034 11.6918 149.472 12.1265 150.011 12.1265Z" fill="#FF4E45"/>
<path d="M146.467 10.5465C146.965 10.5465 147.386 10.1467 147.386 9.63271C147.386 9.13775 146.984 8.71893 146.467 8.71893C145.968 8.71893 145.547 9.11871 145.547 9.63271C145.547 10.1277 145.968 10.5465 146.467 10.5465Z" fill="#FF4E45"/>
<path d="M142.654 9.78499C143.113 9.78499 143.497 9.40425 143.497 8.94737C143.497 8.49048 143.113 8.10974 142.654 8.10974C142.194 8.10974 141.811 8.49048 141.811 8.94737C141.83 9.42329 142.194 9.78499 142.654 9.78499Z" fill="#FF4E45"/>
<path d="M138.802 9.91823C139.215 9.91823 139.55 9.58583 139.55 9.17579C139.55 8.76575 139.215 8.43335 138.802 8.43335C138.39 8.43335 138.055 8.76575 138.055 9.17579C138.055 9.58583 138.39 9.91823 138.802 9.91823Z" fill="#FF4E45"/>
<path d="M135.085 10.8891C135.43 10.8891 135.717 10.6036 135.717 10.2609C135.717 9.91825 135.43 9.63269 135.085 9.63269C134.74 9.63269 134.453 9.91825 134.453 10.2609C134.453 10.6036 134.74 10.8891 135.085 10.8891Z" fill="#FF4E45"/>
<path d="M131.732 12.6786C132.019 12.6786 132.249 12.4502 132.249 12.1646C132.249 11.8791 132.019 11.6506 131.732 11.6506C131.444 11.6506 131.215 11.8791 131.215 12.1646C131.215 12.4502 131.444 12.6786 131.732 12.6786Z" fill="#FF4E45"/>
<path d="M128.915 15.1724C129.127 15.1724 129.298 15.002 129.298 14.7917C129.298 14.5814 129.127 14.4109 128.915 14.4109C128.704 14.4109 128.532 14.5814 128.532 14.7917C128.532 15.002 128.704 15.1724 128.915 15.1724Z" fill="#FF4E45"/>
<path d="M126.769 18.1993C126.886 18.1993 126.98 18.1056 126.98 17.9899C126.98 17.8743 126.886 17.7805 126.769 17.7805C126.653 17.7805 126.558 17.8743 126.558 17.9899C126.558 18.1056 126.653 18.1993 126.769 18.1993Z" fill="#FF4E45"/>
<path d="M131.195 33.3718C131.301 33.3718 131.387 33.2865 131.387 33.1814C131.387 33.0763 131.301 32.991 131.195 32.991C131.09 32.991 131.004 33.0763 131.004 33.1814C131.004 33.2865 131.09 33.3718 131.195 33.3718Z" fill="black"/>
<path d="M133.84 36.1893C134.031 36.1893 134.165 36.037 134.165 35.8656C134.165 35.6753 134.012 35.542 133.84 35.542C133.667 35.542 133.514 35.6943 133.514 35.8656C133.514 36.037 133.648 36.1893 133.84 36.1893Z" fill="white"/>
<path d="M137.135 38.112C137.384 38.112 137.595 37.9026 137.595 37.6551C137.595 37.4076 137.384 37.1982 137.135 37.1982C136.886 37.1982 136.675 37.4076 136.675 37.6551C136.695 37.9026 136.886 38.112 137.135 38.112Z" fill="white"/>
<path d="M140.833 39.0067C141.14 39.0067 141.389 38.7592 141.389 38.4547C141.389 38.1501 141.14 37.9026 140.833 37.9026C140.527 37.9026 140.278 38.1501 140.278 38.4547C140.278 38.7592 140.527 39.0067 140.833 39.0067Z" fill="white"/>
<path d="M144.589 38.7782C144.934 38.7782 145.221 38.4927 145.221 38.15C145.221 37.8073 144.934 37.5218 144.589 37.5218C144.244 37.5218 143.957 37.8073 143.957 38.15C143.957 38.4927 144.244 38.7782 144.589 38.7782Z" fill="white"/>
<path d="M148.115 37.5028C148.506 37.5028 148.823 37.1874 148.823 36.7984C148.823 36.4094 148.506 36.0941 148.115 36.0941C147.723 36.0941 147.406 36.4094 147.406 36.7984C147.406 37.1874 147.723 37.5028 148.115 37.5028Z" fill="white"/>
<path d="M151.084 35.2374C151.506 35.2374 151.832 34.8947 151.832 34.4949C151.832 34.0761 151.487 33.7525 151.084 33.7525C150.682 33.7525 150.337 34.0952 150.337 34.4949C150.337 34.9138 150.663 35.2374 151.084 35.2374Z" fill="white"/>
<path d="M151.793 18.1041C152.227 18.1041 152.579 17.7547 152.579 17.3236C152.579 16.8925 152.227 16.5431 151.793 16.5431C151.36 16.5431 151.008 16.8925 151.008 17.3236C151.008 17.7547 151.36 18.1041 151.793 18.1041Z" fill="white"/>
<path d="M148.996 15.5532C149.417 15.5532 149.743 15.2105 149.743 14.8107C149.743 14.411 149.398 14.0683 148.996 14.0683C148.594 14.0683 148.249 14.411 148.249 14.8107C148.249 15.2105 148.574 15.5532 148.996 15.5532Z" fill="white"/>
<path d="M145.604 13.8779C145.988 13.8779 146.313 13.5543 146.313 13.1735C146.313 12.7928 145.988 12.4692 145.604 12.4692C145.221 12.4692 144.895 12.7928 144.895 13.1735C144.895 13.5543 145.221 13.8779 145.604 13.8779Z" fill="white"/>
<path d="M141.887 13.2116C142.247 13.2116 142.539 12.9218 142.539 12.5644C142.539 12.2069 142.247 11.9171 141.887 11.9171C141.527 11.9171 141.236 12.2069 141.236 12.5644C141.236 12.9218 141.527 13.2116 141.887 13.2116Z" fill="white"/>
<path d="M138.151 13.6114C138.457 13.6114 138.706 13.3639 138.706 13.0593C138.706 12.7547 138.457 12.5073 138.151 12.5073C137.844 12.5073 137.595 12.7547 137.595 13.0593C137.576 13.3639 137.825 13.6114 138.151 13.6114Z" fill="white"/>
<path d="M134.702 15.0392C134.956 15.0392 135.162 14.8346 135.162 14.5823C135.162 14.33 134.956 14.1254 134.702 14.1254C134.448 14.1254 134.242 14.33 134.242 14.5823C134.242 14.8346 134.448 15.0392 134.702 15.0392Z" fill="white"/>
<path d="M131.847 17.3807C132.037 17.3807 132.192 17.2273 132.192 17.038C132.192 16.8488 132.037 16.6954 131.847 16.6954C131.656 16.6954 131.502 16.8488 131.502 17.038C131.502 17.2273 131.656 17.3807 131.847 17.3807Z" fill="white"/>
<path d="M129.816 20.3886C129.922 20.3886 130.007 20.3033 130.007 20.1982C130.007 20.093 129.922 20.0078 129.816 20.0078C129.71 20.0078 129.624 20.093 129.624 20.1982C129.624 20.3033 129.71 20.3886 129.816 20.3886Z" fill="black"/>
<path d="M0 19.3986H2.96995L7.12789 29.0313L11.2858 19.3986H14.2366V32.3628H11.6116V23.9294L8.1051 32.3628H6.13152L2.62506 23.9294V32.3628H0V19.3986Z" fill="#FF4E45"/>
<path d="M24.756 21.4927H19.7933V24.748H24.1812V26.804H19.7933V30.2306H24.756V32.3628H17.1874V19.3796H24.756V21.4927Z" fill="#FF4E45"/>
<path d="M38.9351 25.8902C38.9351 29.8118 36.2334 32.3628 32.0564 32.3628H27.496V19.3986H32.0564C36.2334 19.3986 38.9351 21.9496 38.9351 25.8902ZM31.9605 30.1545C34.7006 30.1545 36.2526 28.5935 36.2526 25.9093C36.2526 23.225 34.7006 21.6069 31.9605 21.6069H30.1019V30.1735H31.9605V30.1545Z" fill="#FF4E45"/>
<path d="M49.9527 32.4961C47.251 32.4961 45.1433 31.0873 45.105 28.6315H47.9025C47.9791 29.6786 48.6689 30.3639 49.8761 30.3639C51.1024 30.3639 51.8305 29.7167 51.8305 28.7838C51.8305 25.9854 45.105 27.6607 45.1241 22.9776C45.1241 20.636 47.0402 19.2273 49.7228 19.2273C52.4053 19.2273 54.2256 20.5789 54.3981 22.9205H51.5239C51.4664 22.0638 50.7766 21.3975 49.6461 21.3785C48.6114 21.3404 47.845 21.8354 47.845 22.9014C47.845 25.5095 54.5322 24.0436 54.5322 28.6125C54.5705 30.6495 52.9227 32.4961 49.9527 32.4961Z" fill="white"/>
<path d="M56.5058 19.3986H66.0863V21.4927H62.6181V32.3628H59.9931V21.4927H56.5249V19.3986H56.5058Z" fill="white"/>
<path d="M73.2525 19.3986C76.3949 19.3986 77.9661 21.2071 77.9661 23.3773C77.9661 24.9574 77.0847 26.5565 74.9962 27.1086L78.1194 32.3628H75.092L72.2178 27.318H70.9915V32.3628H68.3665V19.3986H73.2525ZM73.1567 21.5498H70.9724V25.3572H73.1567C74.6129 25.3572 75.2644 24.5957 75.2644 23.4345C75.2836 22.2732 74.6129 21.5498 73.1567 21.5498Z" fill="white"/>
<path d="M88.2939 21.4927H83.3312V24.748H87.719V26.804H83.3312V30.2306H88.2939V32.3628H80.7253V19.3796H88.2939V21.4927Z" fill="white"/>
<path d="M99.024 29.888H93.8314L92.9692 32.3628H90.2291L94.9236 19.3796H97.9702L102.665 32.3628H99.9054L99.024 29.888ZM96.4373 22.3874L94.5404 27.8129H98.3151L96.4373 22.3874Z" fill="white"/>
<path d="M104.792 19.3986H107.761L111.919 29.0313L116.077 19.3986H119.028V32.3628H116.403V23.9294L112.897 32.3628H110.923L107.417 23.9294V32.3628H104.792V19.3986V19.3986Z" fill="white"/>
<path d="M126.252 18.5039C129.049 18.5039 130.544 20.084 130.544 22.0829C130.544 23.7771 129.471 24.8051 128.494 25.1478V25.224C129.873 25.6428 130.793 26.7659 130.793 28.6125C130.793 30.8208 129.222 32.458 126.367 32.458C123.684 32.458 121.634 31.1254 121.519 28.2699H124.067C124.125 29.4311 124.911 30.2687 126.309 30.2687C127.612 30.2687 128.283 29.4502 128.283 28.365C128.283 26.8421 127.306 26.29 125.37 26.29H124.834V24.1769H125.37C126.903 24.1769 128.034 23.7581 128.034 22.4065C128.034 21.3404 127.382 20.7122 126.175 20.7122C124.911 20.7122 124.355 21.5308 124.259 22.3874H121.691C121.845 19.8746 123.627 18.5039 126.252 18.5039Z" fill="#FF4E45"/>
<path d="M140.297 22.1971C140.048 21.1881 139.511 20.636 138.342 20.636C136.637 20.636 135.852 21.8925 135.813 25.0145C136.426 23.9865 137.672 23.4345 138.994 23.4345C141.427 23.4345 143.133 25.0336 143.133 27.851C143.133 30.4781 141.504 32.3818 138.592 32.3818C134.549 32.3818 133.552 29.5644 133.552 25.3572C133.552 20.9406 134.989 18.4849 138.457 18.4849C141.236 18.4849 142.558 20.2743 142.749 22.178H140.297V22.1971ZM136.062 27.832C136.062 29.2788 136.925 30.1926 138.457 30.1926C139.799 30.1926 140.642 29.3169 140.642 27.9272C140.642 26.5375 139.914 25.5856 138.4 25.5856C137.193 25.5856 136.062 26.29 136.062 27.832Z" fill="#FF4E45"/>
<path d="M150.625 18.561C154.476 18.561 155.664 21.4927 155.664 25.4143C155.664 29.374 154.476 32.3248 150.625 32.3248C146.773 32.3248 145.585 29.374 145.585 25.4143C145.585 21.4927 146.773 18.561 150.625 18.561ZM150.625 20.9787C148.421 20.9787 148.153 23.0918 148.153 25.4143C148.153 27.832 148.421 29.9071 150.625 29.9071C152.828 29.9071 153.096 27.832 153.096 25.4143C153.096 23.0918 152.828 20.9787 150.625 20.9787Z" fill="#FF4E45"/>
<path d="M42.614 16.0101H41.541V35.6943H42.614V16.0101Z" fill="white"/>
</svg>
